<svg width="1024" height="1024" viewBox="0 0 1024 1024" fill="none" xmlns="http://www.w3.org/2000/svg">
<g id="SessionMonitor Icon">
<rect width="1024" height="1024" fill="#212225"/>
<g id="Grid &#226;&#128;&#162; Horizontal">
<rect id="Grid / horizontal" x="110" y="276" width="20" height="5" fill="#A1A3A8" fill-opacity="0.28"/>
<rect id="Grid / horizontal_2" x="148" y="276" width="20" height="5" fill="#A1A3A8" fill-opacity="0.28"/>
<rect id="Grid / horizontal_3" x="186" y="276" width="20" height="5" fill="#A1A3A8" fill-opacity="0.28"/>
<rect id="Grid / horizontal_4" x="224" y="276" width="20" height="5" fill="#A1A3A8" fill-opacity="0.28"/>
<rect id="Grid / horizontal_5" x="262" y="276" width="20" height="5" fill="#A1A3A8" fill-opacity="0.28"/>
<rect id="Grid / horizontal_6" x="300" y="276" width="20" height="5" fill="#A1A3A8" fill-opacity="0.28"/>
<rect id="Grid / horizontal_7" x="338" y="276" width="20" height="5" fill="#A1A3A8" fill-opacity="0.28"/>
<rect id="Grid / horizontal_8" x="376" y="276" width="20" height="5" fill="#A1A3A8" fill-opacity="0.28"/>
<rect id="Grid / horizontal_9" x="414" y="276" width="20" height="5" fill="#A1A3A8" fill-opacity="0.28"/>
<rect id="Grid / horizontal_10" x="452" y="276" width="20" height="5" fill="#A1A3A8" fill-opacity="0.28"/>
<rect id="Grid / horizontal_11" x="490" y="276" width="20" height="5" fill="#A1A3A8" fill-opacity="0.28"/>
<rect id="Grid / horizontal_12" x="528" y="276" width="20" height="5" fill="#A1A3A8" fill-opacity="0.28"/>
<rect id="Grid / horizontal_13" x="566" y="276" width="20" height="5" fill="#A1A3A8" fill-opacity="0.28"/>
<rect id="Grid / horizontal_14" x="604" y="276" width="20" height="5" fill="#A1A3A8" fill-opacity="0.28"/>
<rect id="Grid / horizontal_15" x="642" y="276" width="20" height="5" fill="#A1A3A8" fill-opacity="0.28"/>
<rect id="Grid / horizontal_16" x="680" y="276" width="20" height="5" fill="#A1A3A8" fill-opacity="0.28"/>
<rect id="Grid / horizontal_17" x="718" y="276" width="20" height="5" fill="#A1A3A8" fill-opacity="0.28"/>
<rect id="Grid / horizontal_18" x="756" y="276" width="20" height="5" fill="#A1A3A8" fill-opacity="0.28"/>
<rect id="Grid / horizontal_19" x="794" y="276" width="20" height="5" fill="#A1A3A8" fill-opacity="0.28"/>
<rect id="Grid / horizontal_20" x="832" y="276" width="20" height="5" fill="#A1A3A8" fill-opacity="0.28"/>
<rect id="Grid / horizontal_21" x="870" y="276" width="20" height="5" fill="#A1A3A8" fill-opacity="0.28"/>
<rect id="Grid / horizontal_22" x="908" y="276" width="6" height="5" fill="#A1A3A8" fill-opacity="0.28"/>
<rect id="Grid / horizontal_23" x="110" y="434" width="20" height="5" fill="#A1A3A8" fill-opacity="0.28"/>
<rect id="Grid / horizontal_24" x="148" y="434" width="20" height="5" fill="#A1A3A8" fill-opacity="0.28"/>
<rect id="Grid / horizontal_25" x="186" y="434" width="20" height="5" fill="#A1A3A8" fill-opacity="0.28"/>
<rect id="Grid / horizontal_26" x="224" y="434" width="20" height="5" fill="#A1A3A8" fill-opacity="0.28"/>
<rect id="Grid / horizontal_27" x="262" y="434" width="20" height="5" fill="#A1A3A8" fill-opacity="0.28"/>
<rect id="Grid / horizontal_28" x="300" y="434" width="20" height="5" fill="#A1A3A8" fill-opacity="0.28"/>
<rect id="Grid / horizontal_29" x="338" y="434" width="20" height="5" fill="#A1A3A8" fill-opacity="0.28"/>
<rect id="Grid / horizontal_30" x="376" y="434" width="20" height="5" fill="#A1A3A8" fill-opacity="0.28"/>
<rect id="Grid / horizontal_31" x="414" y="434" width="20" height="5" fill="#A1A3A8" fill-opacity="0.28"/>
<rect id="Grid / horizontal_32" x="452" y="434" width="20" height="5" fill="#A1A3A8" fill-opacity="0.28"/>
<rect id="Grid / horizontal_33" x="490" y="434" width="20" height="5" fill="#A1A3A8" fill-opacity="0.28"/>
<rect id="Grid / horizontal_34" x="528" y="434" width="20" height="5" fill="#A1A3A8" fill-opacity="0.28"/>
<rect id="Grid / horizontal_35" x="566" y="434" width="20" height="5" fill="#A1A3A8" fill-opacity="0.28"/>
<rect id="Grid / horizontal_36" x="604" y="434" width="20" height="5" fill="#A1A3A8" fill-opacity="0.28"/>
<rect id="Grid / horizontal_37" x="642" y="434" width="20" height="5" fill="#A1A3A8" fill-opacity="0.28"/>
<rect id="Grid / horizontal_38" x="680" y="434" width="20" height="5" fill="#A1A3A8" fill-opacity="0.28"/>
<rect id="Grid / horizontal_39" x="718" y="434" width="20" height="5" fill="#A1A3A8" fill-opacity="0.28"/>
<rect id="Grid / horizontal_40" x="756" y="434" width="20" height="5" fill="#A1A3A8" fill-opacity="0.28"/>
<rect id="Grid / horizontal_41" x="794" y="434" width="20" height="5" fill="#A1A3A8" fill-opacity="0.28"/>
<rect id="Grid / horizontal_42" x="832" y="434" width="20" height="5" fill="#A1A3A8" fill-opacity="0.28"/>
<rect id="Grid / horizontal_43" x="870" y="434" width="20" height="5" fill="#A1A3A8" fill-opacity="0.28"/>
<rect id="Grid / horizontal_44" x="908" y="434" width="6" height="5" fill="#A1A3A8" fill-opacity="0.28"/>
<rect id="Grid / horizontal_45" x="110" y="592" width="20" height="5" fill="#A1A3A8" fill-opacity="0.28"/>
<rect id="Grid / horizontal_46" x="148" y="592" width="20" height="5" fill="#A1A3A8" fill-opacity="0.28"/>
<rect id="Grid / horizontal_47" x="186" y="592" width="20" height="5" fill="#A1A3A8" fill-opacity="0.28"/>
<rect id="Grid / horizontal_48" x="224" y="592" width="20" height="5" fill="#A1A3A8" fill-opacity="0.28"/>
<rect id="Grid / horizontal_49" x="262" y="592" width="20" height="5" fill="#A1A3A8" fill-opacity="0.28"/>
<rect id="Grid / horizontal_50" x="300" y="592" width="20" height="5" fill="#A1A3A8" fill-opacity="0.28"/>
<rect id="Grid / horizontal_51" x="338" y="592" width="20" height="5" fill="#A1A3A8" fill-opacity="0.28"/>
<rect id="Grid / horizontal_52" x="376" y="592" width="20" height="5" fill="#A1A3A8" fill-opacity="0.28"/>
<rect id="Grid / horizontal_53" x="414" y="592" width="20" height="5" fill="#A1A3A8" fill-opacity="0.28"/>
<rect id="Grid / horizontal_54" x="452" y="592" width="20" height="5" fill="#A1A3A8" fill-opacity="0.28"/>
<rect id="Grid / horizontal_55" x="490" y="592" width="20" height="5" fill="#A1A3A8" fill-opacity="0.28"/>
<rect id="Grid / horizontal_56" x="528" y="592" width="20" height="5" fill="#A1A3A8" fill-opacity="0.28"/>
<rect id="Grid / horizontal_57" x="566" y="592" width="20" height="5" fill="#A1A3A8" fill-opacity="0.28"/>
<rect id="Grid / horizontal_58" x="604" y="592" width="20" height="5" fill="#A1A3A8" fill-opacity="0.28"/>
<rect id="Grid / horizontal_59" x="642" y="592" width="20" height="5" fill="#A1A3A8" fill-opacity="0.28"/>
<rect id="Grid / horizontal_60" x="680" y="592" width="20" height="5" fill="#A1A3A8" fill-opacity="0.28"/>
<rect id="Grid / horizontal_61" x="718" y="592" width="20" height="5" fill="#A1A3A8" fill-opacity="0.28"/>
<rect id="Grid / horizontal_62" x="756" y="592" width="20" height="5" fill="#A1A3A8" fill-opacity="0.28"/>
<rect id="Grid / horizontal_63" x="794" y="592" width="20" height="5" fill="#A1A3A8" fill-opacity="0.28"/>
<rect id="Grid / horizontal_64" x="832" y="592" width="20" height="5" fill="#A1A3A8" fill-opacity="0.28"/>
<rect id="Grid / horizontal_65" x="870" y="592" width="20" height="5" fill="#A1A3A8" fill-opacity="0.28"/>
<rect id="Grid / horizontal_66" x="908" y="592" width="6" height="5" fill="#A1A3A8" fill-opacity="0.28"/>
<rect id="Grid / horizontal_67" x="110" y="750" width="20" height="5" fill="#A1A3A8" fill-opacity="0.28"/>
<rect id="Grid / horizontal_68" x="148" y="750" width="20" height="5" fill="#A1A3A8" fill-opacity="0.28"/>
<rect id="Grid / horizontal_69" x="186" y="750" width="20" height="5" fill="#A1A3A8" fill-opacity="0.28"/>
<rect id="Grid / horizontal_70" x="224" y="750" width="20" height="5" fill="#A1A3A8" fill-opacity="0.28"/>
<rect id="Grid / horizontal_71" x="262" y="750" width="20" height="5" fill="#A1A3A8" fill-opacity="0.28"/>
<rect id="Grid / horizontal_72" x="300" y="750" width="20" height="5" fill="#A1A3A8" fill-opacity="0.28"/>
<rect id="Grid / horizontal_73" x="338" y="750" width="20" height="5" fill="#A1A3A8" fill-opacity="0.28"/>
<rect id="Grid / horizontal_74" x="376" y="750" width="20" height="5" fill="#A1A3A8" fill-opacity="0.28"/>
<rect id="Grid / horizontal_75" x="414" y="750" width="20" height="5" fill="#A1A3A8" fill-opacity="0.28"/>
<rect id="Grid / horizontal_76" x="452" y="750" width="20" height="5" fill="#A1A3A8" fill-opacity="0.28"/>
<rect id="Grid / horizontal_77" x="490" y="750" width="20" height="5" fill="#A1A3A8" fill-opacity="0.28"/>
<rect id="Grid / horizontal_78" x="528" y="750" width="20" height="5" fill="#A1A3A8" fill-opacity="0.28"/>
<rect id="Grid / horizontal_79" x="566" y="750" width="20" height="5" fill="#A1A3A8" fill-opacity="0.28"/>
<rect id="Grid / horizontal_80" x="604" y="750" width="20" height="5" fill="#A1A3A8" fill-opacity="0.28"/>
<rect id="Grid / horizontal_81" x="642" y="750" width="20" height="5" fill="#A1A3A8" fill-opacity="0.28"/>
<rect id="Grid / horizontal_82" x="680" y="750" width="20" height="5" fill="#A1A3A8" fill-opacity="0.28"/>
<rect id="Grid / horizontal_83" x="718" y="750" width="20" height="5" fill="#A1A3A8" fill-opacity="0.28"/>
<rect id="Grid / horizontal_84" x="756" y="750" width="20" height="5" fill="#A1A3A8" fill-opacity="0.28"/>
<rect id="Grid / horizontal_85" x="794" y="750" width="20" height="5" fill="#A1A3A8" fill-opacity="0.28"/>
<rect id="Grid / horizontal_86" x="832" y="750" width="20" height="5" fill="#A1A3A8" fill-opacity="0.28"/>
<rect id="Grid / horizontal_87" x="870" y="750" width="20" height="5" fill="#A1A3A8" fill-opacity="0.28"/>
<rect id="Grid / horizontal_88" x="908" y="750" width="6" height="5" fill="#A1A3A8" fill-opacity="0.28"/>
</g>
<g id="Grid &#226;&#128;&#162; Vertical">
<rect id="Grid / vertical" x="288" y="118" width="5" height="20" fill="#A1A3A8" fill-opacity="0.28"/>
<rect id="Grid / vertical_2" x="288" y="156" width="5" height="20" fill="#A1A3A8" fill-opacity="0.28"/>
<rect id="Grid / vertical_3" x="288" y="194" width="5" height="20" fill="#A1A3A8" fill-opacity="0.28"/>
<rect id="Grid / vertical_4" x="288" y="232" width="5" height="20" fill="#A1A3A8" fill-opacity="0.28"/>
<rect id="Grid / vertical_5" x="288" y="270" width="5" height="20" fill="#A1A3A8" fill-opacity="0.28"/>
<rect id="Grid / vertical_6" x="288" y="308" width="5" height="20" fill="#A1A3A8" fill-opacity="0.28"/>
<rect id="Grid / vertical_7" x="288" y="346" width="5" height="20" fill="#A1A3A8" fill-opacity="0.28"/>
<rect id="Grid / vertical_8" x="288" y="384" width="5" height="20" fill="#A1A3A8" fill-opacity="0.28"/>
<rect id="Grid / vertical_9" x="288" y="422" width="5" height="20" fill="#A1A3A8" fill-opacity="0.28"/>
<rect id="Grid / vertical_10" x="288" y="460" width="5" height="20" fill="#A1A3A8" fill-opacity="0.28"/>
<rect id="Grid / vertical_11" x="288" y="498" width="5" height="20" fill="#A1A3A8" fill-opacity="0.28"/>
<rect id="Grid / vertical_12" x="288" y="536" width="5" height="20" fill="#A1A3A8" fill-opacity="0.28"/>
<rect id="Grid / vertical_13" x="288" y="574" width="5" height="20" fill="#A1A3A8" fill-opacity="0.28"/>
<rect id="Grid / vertical_14" x="288" y="612" width="5" height="20" fill="#A1A3A8" fill-opacity="0.28"/>
<rect id="Grid / vertical_15" x="288" y="650" width="5" height="20" fill="#A1A3A8" fill-opacity="0.28"/>
<rect id="Grid / vertical_16" x="288" y="688" width="5" height="20" fill="#A1A3A8" fill-opacity="0.28"/>
<rect id="Grid / vertical_17" x="288" y="726" width="5" height="20" fill="#A1A3A8" fill-opacity="0.28"/>
<rect id="Grid / vertical_18" x="288" y="764" width="5" height="20" fill="#A1A3A8" fill-opacity="0.28"/>
<rect id="Grid / vertical_19" x="288" y="802" width="5" height="20" fill="#A1A3A8" fill-opacity="0.28"/>
<rect id="Grid / vertical_20" x="288" y="840" width="5" height="20" fill="#A1A3A8" fill-opacity="0.28"/>
<rect id="Grid / vertical_21" x="288" y="878" width="5" height="20" fill="#A1A3A8" fill-opacity="0.28"/>
<rect id="Grid / vertical_22" x="478" y="118" width="5" height="20" fill="#A1A3A8" fill-opacity="0.28"/>
<rect id="Grid / vertical_23" x="478" y="156" width="5" height="20" fill="#A1A3A8" fill-opacity="0.28"/>
<rect id="Grid / vertical_24" x="478" y="194" width="5" height="20" fill="#A1A3A8" fill-opacity="0.28"/>
<rect id="Grid / vertical_25" x="478" y="232" width="5" height="20" fill="#A1A3A8" fill-opacity="0.28"/>
<rect id="Grid / vertical_26" x="478" y="270" width="5" height="20" fill="#A1A3A8" fill-opacity="0.28"/>
<rect id="Grid / vertical_27" x="478" y="308" width="5" height="20" fill="#A1A3A8" fill-opacity="0.28"/>
<rect id="Grid / vertical_28" x="478" y="346" width="5" height="20" fill="#A1A3A8" fill-opacity="0.28"/>
<rect id="Grid / vertical_29" x="478" y="384" width="5" height="20" fill="#A1A3A8" fill-opacity="0.28"/>
<rect id="Grid / vertical_30" x="478" y="422" width="5" height="20" fill="#A1A3A8" fill-opacity="0.28"/>
<rect id="Grid / vertical_31" x="478" y="460" width="5" height="20" fill="#A1A3A8" fill-opacity="0.28"/>
<rect id="Grid / vertical_32" x="478" y="498" width="5" height="20" fill="#A1A3A8" fill-opacity="0.28"/>
<rect id="Grid / vertical_33" x="478" y="536" width="5" height="20" fill="#A1A3A8" fill-opacity="0.28"/>
<rect id="Grid / vertical_34" x="478" y="574" width="5" height="20" fill="#A1A3A8" fill-opacity="0.28"/>
<rect id="Grid / vertical_35" x="478" y="612" width="5" height="20" fill="#A1A3A8" fill-opacity="0.28"/>
<rect id="Grid / vertical_36" x="478" y="650" width="5" height="20" fill="#A1A3A8" fill-opacity="0.28"/>
<rect id="Grid / vertical_37" x="478" y="688" width="5" height="20" fill="#A1A3A8" fill-opacity="0.28"/>
<rect id="Grid / vertical_38" x="478" y="726" width="5" height="20" fill="#A1A3A8" fill-opacity="0.28"/>
<rect id="Grid / vertical_39" x="478" y="764" width="5" height="20" fill="#A1A3A8" fill-opacity="0.28"/>
<rect id="Grid / vertical_40" x="478" y="802" width="5" height="20" fill="#A1A3A8" fill-opacity="0.28"/>
<rect id="Grid / vertical_41" x="478" y="840" width="5" height="20" fill="#A1A3A8" fill-opacity="0.28"/>
<rect id="Grid / vertical_42" x="478" y="878" width="5" height="20" fill="#A1A3A8" fill-opacity="0.28"/>
<rect id="Grid / vertical_43" x="668" y="118" width="5" height="20" fill="#A1A3A8" fill-opacity="0.28"/>
<rect id="Grid / vertical_44" x="668" y="156" width="5" height="20" fill="#A1A3A8" fill-opacity="0.28"/>
<rect id="Grid / vertical_45" x="668" y="194" width="5" height="20" fill="#A1A3A8" fill-opacity="0.28"/>
<rect id="Grid / vertical_46" x="668" y="232" width="5" height="20" fill="#A1A3A8" fill-opacity="0.28"/>
<rect id="Grid / vertical_47" x="668" y="270" width="5" height="20" fill="#A1A3A8" fill-opacity="0.28"/>
<rect id="Grid / vertical_48" x="668" y="308" width="5" height="20" fill="#A1A3A8" fill-opacity="0.28"/>
<rect id="Grid / vertical_49" x="668" y="346" width="5" height="20" fill="#A1A3A8" fill-opacity="0.28"/>
<rect id="Grid / vertical_50" x="668" y="384" width="5" height="20" fill="#A1A3A8" fill-opacity="0.28"/>
<rect id="Grid / vertical_51" x="668" y="422" width="5" height="20" fill="#A1A3A8" fill-opacity="0.28"/>
<rect id="Grid / vertical_52" x="668" y="460" width="5" height="20" fill="#A1A3A8" fill-opacity="0.28"/>
<rect id="Grid / vertical_53" x="668" y="498" width="5" height="20" fill="#A1A3A8" fill-opacity="0.28"/>
<rect id="Grid / vertical_54" x="668" y="536" width="5" height="20" fill="#A1A3A8" fill-opacity="0.28"/>
<rect id="Grid / vertical_55" x="668" y="574" width="5" height="20" fill="#A1A3A8" fill-opacity="0.28"/>
<rect id="Grid / vertical_56" x="668" y="612" width="5" height="20" fill="#A1A3A8" fill-opacity="0.28"/>
<rect id="Grid / vertical_57" x="668" y="650" width="5" height="20" fill="#A1A3A8" fill-opacity="0.28"/>
<rect id="Grid / vertical_58" x="668" y="688" width="5" height="20" fill="#A1A3A8" fill-opacity="0.28"/>
<rect id="Grid / vertical_59" x="668" y="726" width="5" height="20" fill="#A1A3A8" fill-opacity="0.28"/>
<rect id="Grid / vertical_60" x="668" y="764" width="5" height="20" fill="#A1A3A8" fill-opacity="0.28"/>
<rect id="Grid / vertical_61" x="668" y="802" width="5" height="20" fill="#A1A3A8" fill-opacity="0.28"/>
<rect id="Grid / vertical_62" x="668" y="840" width="5" height="20" fill="#A1A3A8" fill-opacity="0.28"/>
<rect id="Grid / vertical_63" x="668" y="878" width="5" height="20" fill="#A1A3A8" fill-opacity="0.28"/>
<rect id="Grid / vertical_64" x="858" y="118" width="5" height="20" fill="#A1A3A8" fill-opacity="0.28"/>
<rect id="Grid / vertical_65" x="858" y="156" width="5" height="20" fill="#A1A3A8" fill-opacity="0.28"/>
<rect id="Grid / vertical_66" x="858" y="194" width="5" height="20" fill="#A1A3A8" fill-opacity="0.28"/>
<rect id="Grid / vertical_67" x="858" y="232" width="5" height="20" fill="#A1A3A8" fill-opacity="0.28"/>
<rect id="Grid / vertical_68" x="858" y="270" width="5" height="20" fill="#A1A3A8" fill-opacity="0.28"/>
<rect id="Grid / vertical_69" x="858" y="308" width="5" height="20" fill="#A1A3A8" fill-opacity="0.28"/>
<rect id="Grid / vertical_70" x="858" y="346" width="5" height="20" fill="#A1A3A8" fill-opacity="0.28"/>
<rect id="Grid / vertical_71" x="858" y="384" width="5" height="20" fill="#A1A3A8" fill-opacity="0.28"/>
<rect id="Grid / vertical_72" x="858" y="422" width="5" height="20" fill="#A1A3A8" fill-opacity="0.28"/>
<rect id="Grid / vertical_73" x="858" y="460" width="5" height="20" fill="#A1A3A8" fill-opacity="0.28"/>
<rect id="Grid / vertical_74" x="858" y="498" width="5" height="20" fill="#A1A3A8" fill-opacity="0.28"/>
<rect id="Grid / vertical_75" x="858" y="536" width="5" height="20" fill="#A1A3A8" fill-opacity="0.28"/>
<rect id="Grid / vertical_76" x="858" y="574" width="5" height="20" fill="#A1A3A8" fill-opacity="0.28"/>
<rect id="Grid / vertical_77" x="858" y="612" width="5" height="20" fill="#A1A3A8" fill-opacity="0.28"/>
<rect id="Grid / vertical_78" x="858" y="650" width="5" height="20" fill="#A1A3A8" fill-opacity="0.28"/>
<rect id="Grid / vertical_79" x="858" y="688" width="5" height="20" fill="#A1A3A8" fill-opacity="0.28"/>
<rect id="Grid / vertical_80" x="858" y="726" width="5" height="20" fill="#A1A3A8" fill-opacity="0.28"/>
<rect id="Grid / vertical_81" x="858" y="764" width="5" height="20" fill="#A1A3A8" fill-opacity="0.28"/>
<rect id="Grid / vertical_82" x="858" y="802" width="5" height="20" fill="#A1A3A8" fill-opacity="0.28"/>
<rect id="Grid / vertical_83" x="858" y="840" width="5" height="20" fill="#A1A3A8" fill-opacity="0.28"/>
<rect id="Grid / vertical_84" x="858" y="878" width="5" height="20" fill="#A1A3A8" fill-opacity="0.28"/>
</g>
<g id="Cache ranges">
<rect id="Range / Monday" x="180" y="520" width="104" height="222" rx="52" fill="#A8ABB0" fill-opacity="0.92"/>
<rect id="Range / Tuesday" x="370" y="350" width="104" height="314" rx="52" fill="#A8ABB0" fill-opacity="0.92"/>
<rect id="Range / Wednesday" x="560" y="430" width="104" height="286" rx="52" fill="#A8ABB0" fill-opacity="0.92"/>
<rect id="Range / Thursday" x="750" y="250" width="104" height="330" rx="52" fill="#A8ABB0" fill-opacity="0.92"/>
</g>
<g id="Average markers">
<rect id="Average / Monday" x="164" y="625" width="136" height="26" rx="13" fill="#F7F9FB"/>
<rect id="Average / Tuesday" x="354" y="505" width="136" height="26" rx="13" fill="#F7F9FB"/>
<rect id="Average / Wednesday" x="544" y="565" width="136" height="26" rx="13" fill="#F7F9FB"/>
<rect id="Average / Thursday" x="734" y="414" width="136" height="26" rx="13" fill="#F7F9FB"/>
</g>
<g id="Outlier dots">
<circle id="Outlier / low" cx="232" cy="800" r="29" fill="#A8ABB0" fill-opacity="0.92"/>
<circle id="Outlier / high" cx="802" cy="206" r="29" fill="#A8ABB0" fill-opacity="0.92"/>
</g>
</g>
</svg>
